<svg xmlns="http://www.w3.org/2000/svg" viewBox="0 0 800 450" preserveAspectRatio="xMidYMax slice">
  <defs>
    <linearGradient id="sky" x1="0" y1="0" x2="0" y2="1">
      <stop offset="0%" stop-color="#87CEEB"/>
      <stop offset="100%" stop-color="#B8E6FF"/>
    </linearGradient>
    <linearGradient id="ground" x1="0" y1="0" x2="0" y2="1">
      <stop offset="0%" stop-color="#27ae60"/>
      <stop offset="100%" stop-color="#1e8449"/>
    </linearGradient>
  </defs>
  <rect width="800" height="450" fill="url(#sky)"/>
  <circle cx="680" cy="70" r="42" fill="#FFE066" opacity="0.95"/>
  <ellipse cx="120" cy="95" rx="70" ry="28" fill="#fff" opacity="0.85"/>
  <ellipse cx="165" cy="88" rx="55" ry="22" fill="#fff" opacity="0.9"/>
  <ellipse cx="520" cy="60" rx="80" ry="24" fill="#fff" opacity="0.75"/>
  <path d="M0 280 Q200 240 400 270 T800 255 L800 450 L0 450 Z" fill="#2ecc71"/>
  <path d="M0 310 Q250 280 500 300 T800 290 L800 450 L0 450 Z" fill="url(#ground)"/>
  <polygon points="80,310 110,230 140,310" fill="#1a5f2a"/>
  <polygon points="130,320 165,210 200,320" fill="#145a32"/>
  <polygon points="190,315 220,250 250,315" fill="#1a5f2a"/>
  <polygon points="560,305 600,190 640,305" fill="#145a32"/>
  <polygon points="620,318 655,220 690,318" fill="#1a5f2a"/>
  <polygon points="700,310 730,260 760,310" fill="#145a32"/>
  <ellipse cx="400" cy="420" rx="320" ry="28" fill="rgba(0,0,0,0.15)"/>
</svg>
