<svg xmlns="http://www.w3.org/2000/svg" viewBox="0 0 800 450" preserveAspectRatio="xMidYMax slice">
  <defs>
    <linearGradient id="cave-bg" x1="0" y1="0" x2="0" y2="1">
      <stop offset="0%" stop-color="#1a252f"/>
      <stop offset="100%" stop-color="#2c3e50"/>
    </linearGradient>
    <radialGradient id="glow" cx="50%" cy="40%" r="50%">
      <stop offset="0%" stop-color="#5dade2" stop-opacity="0.35"/>
      <stop offset="100%" stop-color="#000" stop-opacity="0"/>
    </radialGradient>
  </defs>
  <rect width="800" height="450" fill="url(#cave-bg)"/>
  <rect width="800" height="450" fill="url(#glow)"/>
  <path d="M0 0 L120 180 L0 320 Z" fill="#17202a"/>
  <path d="M800 0 L680 160 L800 300 Z" fill="#17202a"/>
  <path d="M0 120 Q400 80 800 120 L800 450 L0 450 Z" fill="#34495e"/>
  <path d="M0 300 Q200 260 400 285 T800 275 L800 450 L0 450 Z" fill="#4a235a" opacity="0.6"/>
  <polygon points="180,200 200,160 220,200" fill="#85c1e9" opacity="0.8"/>
  <polygon points="520,180 545,130 570,180" fill="#a9cce3" opacity="0.85"/>
  <polygon points="350,220 370,175 390,220" fill="#7fb3d5" opacity="0.7"/>
  <ellipse cx="400" cy="420" rx="280" ry="24" fill="rgba(0,0,0,0.35)"/>
</svg>
